<mxfile host="app.diagrams.net" modified="2023-07-04T14:47:17.292Z" agent="Mozilla/5.0 (Windows NT 10.0; Win64; x64) AppleWebKit/537.36 (KHTML, like Gecko) Chrome/114.0.0.0 Safari/537.36" etag="uaHp0gzjn8TdAPsj2Sh1" version="21.5.2" type="github">
  <diagram name="Page-1" id="qrJaefqJqWcOck06pkET">
    <mxGraphModel dx="4432" dy="956" grid="1" gridSize="10" guides="1" tooltips="1" connect="1" arrows="1" fold="1" page="1" pageScale="1" pageWidth="850" pageHeight="1100" math="0" shadow="0">
      <root>
        <mxCell id="0" />
        <mxCell id="1" parent="0" />
        <mxCell id="Y9d2AtKNgh2TE14PhXuT-106" value="" style="endArrow=none;html=1;rounded=0;strokeWidth=3;fontSize=20;" edge="1" parent="1">
          <mxGeometry width="50" height="50" relative="1" as="geometry">
            <mxPoint x="-360" y="1044.17" as="sourcePoint" />
            <mxPoint x="1550" y="1044.17" as="targetPoint" />
          </mxGeometry>
        </mxCell>
        <mxCell id="Y9d2AtKNgh2TE14PhXuT-105" value="" style="endArrow=none;html=1;rounded=0;strokeWidth=3;fontSize=20;" edge="1" parent="1">
          <mxGeometry width="50" height="50" relative="1" as="geometry">
            <mxPoint x="-360" y="349.17" as="sourcePoint" />
            <mxPoint x="1550" y="349.17" as="targetPoint" />
          </mxGeometry>
        </mxCell>
        <mxCell id="Y9d2AtKNgh2TE14PhXuT-96" value="" style="rounded=1;whiteSpace=wrap;html=1;strokeWidth=2;fontSize=20;" vertex="1" parent="1">
          <mxGeometry x="-160" y="980" width="1570" height="120" as="geometry" />
        </mxCell>
        <mxCell id="Y9d2AtKNgh2TE14PhXuT-81" value="" style="rounded=1;whiteSpace=wrap;html=1;strokeWidth=2;fontSize=20;" vertex="1" parent="1">
          <mxGeometry x="-170" y="300" width="560" height="100" as="geometry" />
        </mxCell>
        <mxCell id="Y9d2AtKNgh2TE14PhXuT-51" value="" style="whiteSpace=wrap;html=1;fontFamily=Courier New;strokeWidth=2;fillColor=#f4f1de;strokeColor=none;fontColor=#FFFFFF;rounded=1;shadow=0;glass=0;comic=0;gradientColor=none;fontSize=20;" vertex="1" parent="1">
          <mxGeometry x="455" y="120" width="735" height="200" as="geometry" />
        </mxCell>
        <mxCell id="Y9d2AtKNgh2TE14PhXuT-1" value="tag" style="rounded=1;whiteSpace=wrap;html=1;fontFamily=Courier New;strokeWidth=2;fillColor=#e07a5f;strokeColor=none;fontColor=#FFFFFF;shadow=1;glass=0;comic=0;gradientColor=none;fontStyle=1;fontSize=20;" vertex="1" parent="1">
          <mxGeometry x="135" y="10" width="110" height="40" as="geometry" />
        </mxCell>
        <mxCell id="Y9d2AtKNgh2TE14PhXuT-12" style="edgeStyle=orthogonalEdgeStyle;rounded=0;orthogonalLoop=1;jettySize=auto;html=1;exitX=0;exitY=1;exitDx=0;exitDy=0;entryX=0;entryY=0.5;entryDx=0;entryDy=0;fontFamily=Times New Roman;strokeWidth=2;fontSize=20;" edge="1" parent="1" source="Y9d2AtKNgh2TE14PhXuT-2" target="Y9d2AtKNgh2TE14PhXuT-3">
          <mxGeometry relative="1" as="geometry" />
        </mxCell>
        <mxCell id="Y9d2AtKNgh2TE14PhXuT-99" style="edgeStyle=orthogonalEdgeStyle;rounded=0;orthogonalLoop=1;jettySize=auto;html=1;entryX=0.5;entryY=0;entryDx=0;entryDy=0;strokeWidth=2;fontSize=20;" edge="1" parent="1" target="Y9d2AtKNgh2TE14PhXuT-97">
          <mxGeometry relative="1" as="geometry">
            <mxPoint x="140" y="30" as="sourcePoint" />
          </mxGeometry>
        </mxCell>
        <mxCell id="Y9d2AtKNgh2TE14PhXuT-2" value="index" style="rounded=1;whiteSpace=wrap;html=1;fontFamily=Courier New;strokeWidth=2;fillColor=#e07a5f;strokeColor=none;fontColor=#FFFFFF;shadow=1;glass=0;comic=0;gradientColor=none;fontStyle=1;fontSize=20;" vertex="1" parent="1">
          <mxGeometry x="240" y="10" width="110" height="40" as="geometry" />
        </mxCell>
        <mxCell id="Y9d2AtKNgh2TE14PhXuT-3" value="" style="rounded=1;whiteSpace=wrap;html=1;fontFamily=Times New Roman;strokeWidth=2;fontSize=20;" vertex="1" parent="1">
          <mxGeometry x="765" y="165" width="310" height="130" as="geometry" />
        </mxCell>
        <mxCell id="Y9d2AtKNgh2TE14PhXuT-4" value="Tag" style="whiteSpace=wrap;html=1;fontFamily=Courier New;strokeWidth=2;fillColor=#e07a5f;strokeColor=none;fontColor=#FFFFFF;rounded=1;shadow=1;glass=0;comic=0;gradientColor=none;fontStyle=1;fontSize=20;" vertex="1" parent="1">
          <mxGeometry x="805" y="200" width="120" height="60" as="geometry" />
        </mxCell>
        <mxCell id="Y9d2AtKNgh2TE14PhXuT-13" style="edgeStyle=orthogonalEdgeStyle;rounded=0;orthogonalLoop=1;jettySize=auto;html=1;exitX=0.5;exitY=1;exitDx=0;exitDy=0;entryX=0.516;entryY=0.01;entryDx=0;entryDy=0;entryPerimeter=0;fontFamily=Times New Roman;strokeWidth=2;fontSize=20;" edge="1" parent="1" source="Y9d2AtKNgh2TE14PhXuT-5" target="Y9d2AtKNgh2TE14PhXuT-15">
          <mxGeometry relative="1" as="geometry">
            <mxPoint x="865" y="360" as="targetPoint" />
          </mxGeometry>
        </mxCell>
        <mxCell id="Y9d2AtKNgh2TE14PhXuT-85" style="edgeStyle=orthogonalEdgeStyle;rounded=0;orthogonalLoop=1;jettySize=auto;html=1;entryX=0.5;entryY=0;entryDx=0;entryDy=0;strokeWidth=2;fontSize=20;" edge="1" parent="1" source="Y9d2AtKNgh2TE14PhXuT-15" target="Y9d2AtKNgh2TE14PhXuT-84">
          <mxGeometry relative="1" as="geometry">
            <Array as="points">
              <mxPoint x="880" y="470" />
              <mxPoint x="360" y="470" />
            </Array>
          </mxGeometry>
        </mxCell>
        <mxCell id="Y9d2AtKNgh2TE14PhXuT-88" style="edgeStyle=orthogonalEdgeStyle;rounded=0;orthogonalLoop=1;jettySize=auto;html=1;strokeWidth=2;fontSize=20;" edge="1" parent="1" source="Y9d2AtKNgh2TE14PhXuT-15" target="Y9d2AtKNgh2TE14PhXuT-87">
          <mxGeometry relative="1" as="geometry" />
        </mxCell>
        <mxCell id="Y9d2AtKNgh2TE14PhXuT-15" value="" style="whiteSpace=wrap;html=1;rounded=1;fontFamily=Courier New;strokeWidth=2;fillColor=#81b29a;strokeColor=none;fontColor=#FFFFFF;shadow=1;glass=0;comic=0;gradientColor=none;fontStyle=1;fontSize=20;" vertex="1" parent="1">
          <mxGeometry x="665" y="370" width="430" height="70" as="geometry" />
        </mxCell>
        <mxCell id="Y9d2AtKNgh2TE14PhXuT-5" value="Map" style="whiteSpace=wrap;html=1;fontFamily=Courier New;strokeWidth=2;fillColor=#77aac2;strokeColor=none;fontColor=#FFFFFF;rounded=1;shadow=1;glass=0;comic=0;gradientColor=none;fontStyle=1;fontSize=20;" vertex="1" parent="1">
          <mxGeometry x="925" y="200" width="120" height="60" as="geometry" />
        </mxCell>
        <mxCell id="Y9d2AtKNgh2TE14PhXuT-7" value="" style="rounded=1;whiteSpace=wrap;html=1;fontFamily=Courier New;strokeWidth=2;fillColor=#77aac2;strokeColor=none;fontColor=#FFFFFF;shadow=1;glass=0;comic=0;gradientColor=none;fontStyle=1;fontSize=20;" vertex="1" parent="1">
          <mxGeometry x="695" y="390" width="50" height="30" as="geometry" />
        </mxCell>
        <mxCell id="Y9d2AtKNgh2TE14PhXuT-8" value="" style="rounded=1;whiteSpace=wrap;html=1;fontFamily=Courier New;strokeWidth=2;fillColor=#77aac2;strokeColor=none;fontColor=#FFFFFF;shadow=1;glass=0;comic=0;gradientColor=none;fontStyle=1;fontSize=20;" vertex="1" parent="1">
          <mxGeometry x="745" y="390" width="50" height="30" as="geometry" />
        </mxCell>
        <mxCell id="Y9d2AtKNgh2TE14PhXuT-9" value="" style="rounded=1;whiteSpace=wrap;html=1;fontFamily=Courier New;strokeWidth=2;fillColor=#77aac2;strokeColor=none;fontColor=#FFFFFF;shadow=1;glass=0;comic=0;gradientColor=none;fontStyle=1;fontSize=20;" vertex="1" parent="1">
          <mxGeometry x="795" y="390" width="50" height="30" as="geometry" />
        </mxCell>
        <mxCell id="Y9d2AtKNgh2TE14PhXuT-10" value="" style="rounded=1;whiteSpace=wrap;html=1;fontFamily=Courier New;strokeWidth=2;fillColor=#77aac2;strokeColor=none;fontColor=#FFFFFF;shadow=1;glass=0;comic=0;gradientColor=none;fontStyle=1;fontSize=20;" vertex="1" parent="1">
          <mxGeometry x="995" y="390" width="50" height="30" as="geometry" />
        </mxCell>
        <mxCell id="Y9d2AtKNgh2TE14PhXuT-17" value="ZoneLine States" style="text;html=1;align=center;verticalAlign=middle;resizable=0;points=[];autosize=1;strokeColor=none;fillColor=none;fontFamily=Times New Roman;strokeWidth=2;fontSize=20;" vertex="1" parent="1">
          <mxGeometry x="475" y="385" width="150" height="40" as="geometry" />
        </mxCell>
        <mxCell id="Y9d2AtKNgh2TE14PhXuT-18" value="" style="whiteSpace=wrap;html=1;rounded=1;fontFamily=Courier New;strokeWidth=2;fillColor=#81b29a;strokeColor=none;fontColor=#FFFFFF;shadow=1;glass=0;comic=0;gradientColor=none;fontStyle=1;fontSize=20;" vertex="1" parent="1">
          <mxGeometry x="130" y="670" width="430" height="70" as="geometry" />
        </mxCell>
        <mxCell id="Y9d2AtKNgh2TE14PhXuT-19" value="" style="rounded=1;whiteSpace=wrap;html=1;fontFamily=Courier New;strokeWidth=2;fillColor=#77aac2;strokeColor=none;fontColor=#FFFFFF;shadow=1;glass=0;comic=0;gradientColor=none;fontStyle=1;fontSize=20;" vertex="1" parent="1">
          <mxGeometry x="160" y="690" width="50" height="30" as="geometry" />
        </mxCell>
        <mxCell id="Y9d2AtKNgh2TE14PhXuT-33" style="edgeStyle=orthogonalEdgeStyle;rounded=0;orthogonalLoop=1;jettySize=auto;html=1;exitX=0.5;exitY=1;exitDx=0;exitDy=0;entryX=0;entryY=0.75;entryDx=0;entryDy=0;entryPerimeter=0;fontFamily=Times New Roman;strokeWidth=2;fontSize=20;" edge="1" parent="1" source="Y9d2AtKNgh2TE14PhXuT-20" target="Y9d2AtKNgh2TE14PhXuT-31">
          <mxGeometry relative="1" as="geometry" />
        </mxCell>
        <mxCell id="Y9d2AtKNgh2TE14PhXuT-20" value="" style="rounded=1;whiteSpace=wrap;html=1;fontFamily=Courier New;strokeWidth=2;fillColor=#77aac2;strokeColor=none;fontColor=#FFFFFF;shadow=1;glass=0;comic=0;gradientColor=none;fontStyle=1;fontSize=20;" vertex="1" parent="1">
          <mxGeometry x="210" y="690" width="50" height="30" as="geometry" />
        </mxCell>
        <mxCell id="Y9d2AtKNgh2TE14PhXuT-34" style="edgeStyle=orthogonalEdgeStyle;rounded=0;orthogonalLoop=1;jettySize=auto;html=1;exitX=0.5;exitY=1;exitDx=0;exitDy=0;fontFamily=Times New Roman;strokeWidth=2;fontSize=20;" edge="1" parent="1" source="Y9d2AtKNgh2TE14PhXuT-21" target="Y9d2AtKNgh2TE14PhXuT-31">
          <mxGeometry relative="1" as="geometry" />
        </mxCell>
        <mxCell id="Y9d2AtKNgh2TE14PhXuT-39" style="edgeStyle=orthogonalEdgeStyle;rounded=0;orthogonalLoop=1;jettySize=auto;html=1;entryX=0;entryY=0.75;entryDx=0;entryDy=0;entryPerimeter=0;fontFamily=Times New Roman;strokeWidth=2;fontSize=20;" edge="1" parent="1" source="Y9d2AtKNgh2TE14PhXuT-21" target="Y9d2AtKNgh2TE14PhXuT-38">
          <mxGeometry relative="1" as="geometry">
            <Array as="points">
              <mxPoint x="285" y="790" />
              <mxPoint x="400" y="790" />
            </Array>
          </mxGeometry>
        </mxCell>
        <mxCell id="Y9d2AtKNgh2TE14PhXuT-21" value="" style="rounded=1;whiteSpace=wrap;html=1;fontFamily=Courier New;strokeWidth=2;fillColor=#77aac2;strokeColor=none;fontColor=#FFFFFF;shadow=1;glass=0;comic=0;gradientColor=none;fontStyle=1;fontSize=20;" vertex="1" parent="1">
          <mxGeometry x="260" y="690" width="50" height="30" as="geometry" />
        </mxCell>
        <mxCell id="Y9d2AtKNgh2TE14PhXuT-22" value="" style="rounded=1;whiteSpace=wrap;html=1;fontFamily=Courier New;strokeWidth=2;fillColor=#77aac2;strokeColor=none;fontColor=#FFFFFF;shadow=1;glass=0;comic=0;gradientColor=none;fontStyle=1;fontSize=20;" vertex="1" parent="1">
          <mxGeometry x="460" y="690" width="50" height="30" as="geometry" />
        </mxCell>
        <mxCell id="Y9d2AtKNgh2TE14PhXuT-29" value="right shift" style="text;html=1;align=center;verticalAlign=middle;resizable=0;points=[];autosize=1;strokeColor=none;fillColor=none;fontFamily=Times New Roman;strokeWidth=2;fontSize=20;" vertex="1" parent="1">
          <mxGeometry x="1120" y="685" width="100" height="40" as="geometry" />
        </mxCell>
        <mxCell id="Y9d2AtKNgh2TE14PhXuT-31" value="" style="shape=or;whiteSpace=wrap;html=1;rotation=90;fontFamily=Times New Roman;strokeWidth=2;fontSize=20;" vertex="1" parent="1">
          <mxGeometry x="255" y="810" width="60" height="80" as="geometry" />
        </mxCell>
        <mxCell id="Y9d2AtKNgh2TE14PhXuT-37" style="edgeStyle=orthogonalEdgeStyle;rounded=0;orthogonalLoop=1;jettySize=auto;html=1;entryX=0;entryY=0.25;entryDx=0;entryDy=0;entryPerimeter=0;exitX=0.5;exitY=1;exitDx=0;exitDy=0;fontFamily=Times New Roman;strokeWidth=2;fontSize=20;" edge="1" parent="1" source="Y9d2AtKNgh2TE14PhXuT-35" target="Y9d2AtKNgh2TE14PhXuT-31">
          <mxGeometry relative="1" as="geometry" />
        </mxCell>
        <mxCell id="Y9d2AtKNgh2TE14PhXuT-35" value="" style="rounded=1;whiteSpace=wrap;html=1;fontFamily=Courier New;strokeWidth=2;fillColor=#77aac2;strokeColor=none;fontColor=#FFFFFF;shadow=1;glass=0;comic=0;gradientColor=none;fontStyle=1;fontSize=20;" vertex="1" parent="1">
          <mxGeometry x="310" y="690" width="50" height="30" as="geometry" />
        </mxCell>
        <mxCell id="Y9d2AtKNgh2TE14PhXuT-41" style="edgeStyle=orthogonalEdgeStyle;rounded=0;orthogonalLoop=1;jettySize=auto;html=1;exitX=0;exitY=0.5;exitDx=0;exitDy=0;exitPerimeter=0;startArrow=classic;startFill=1;endArrow=none;endFill=0;fontFamily=Times New Roman;strokeWidth=2;fontSize=20;" edge="1" parent="1" source="Y9d2AtKNgh2TE14PhXuT-38">
          <mxGeometry relative="1" as="geometry">
            <mxPoint x="409.47058823529414" y="760" as="targetPoint" />
          </mxGeometry>
        </mxCell>
        <mxCell id="Y9d2AtKNgh2TE14PhXuT-43" style="edgeStyle=orthogonalEdgeStyle;rounded=0;orthogonalLoop=1;jettySize=auto;html=1;exitX=0;exitY=0.25;exitDx=0;exitDy=0;exitPerimeter=0;startArrow=classic;startFill=1;endArrow=none;endFill=0;fontFamily=Times New Roman;strokeWidth=2;fontSize=20;" edge="1" parent="1" source="Y9d2AtKNgh2TE14PhXuT-38">
          <mxGeometry relative="1" as="geometry">
            <mxPoint x="430.0005882352941" y="760" as="targetPoint" />
            <mxPoint x="430.53" y="860" as="sourcePoint" />
          </mxGeometry>
        </mxCell>
        <mxCell id="Y9d2AtKNgh2TE14PhXuT-93" style="edgeStyle=orthogonalEdgeStyle;rounded=0;orthogonalLoop=1;jettySize=auto;html=1;entryX=0.5;entryY=1;entryDx=0;entryDy=0;strokeWidth=2;fontSize=20;" edge="1" parent="1" source="Y9d2AtKNgh2TE14PhXuT-45" target="Y9d2AtKNgh2TE14PhXuT-92">
          <mxGeometry relative="1" as="geometry" />
        </mxCell>
        <mxCell id="Y9d2AtKNgh2TE14PhXuT-45" value="" style="whiteSpace=wrap;html=1;rounded=1;fontFamily=Courier New;strokeWidth=2;fillColor=#81b29a;strokeColor=none;fontColor=#FFFFFF;shadow=1;glass=0;comic=0;gradientColor=none;fontStyle=1;fontSize=20;" vertex="1" parent="1">
          <mxGeometry x="125" y="1010" width="430" height="70" as="geometry" />
        </mxCell>
        <mxCell id="Y9d2AtKNgh2TE14PhXuT-46" value="" style="rounded=1;whiteSpace=wrap;html=1;fontFamily=Courier New;strokeWidth=2;fillColor=#77aac2;strokeColor=none;fontColor=#FFFFFF;shadow=1;glass=0;comic=0;gradientColor=none;fontStyle=1;fontSize=20;" vertex="1" parent="1">
          <mxGeometry x="155" y="1030" width="50" height="30" as="geometry" />
        </mxCell>
        <mxCell id="Y9d2AtKNgh2TE14PhXuT-47" value="" style="rounded=1;whiteSpace=wrap;html=1;fontFamily=Courier New;strokeWidth=2;fillColor=#77aac2;strokeColor=none;fontColor=#FFFFFF;shadow=1;glass=0;comic=0;gradientColor=none;fontStyle=1;fontSize=20;" vertex="1" parent="1">
          <mxGeometry x="205" y="1030" width="50" height="30" as="geometry" />
        </mxCell>
        <mxCell id="Y9d2AtKNgh2TE14PhXuT-48" value="" style="rounded=1;whiteSpace=wrap;html=1;fontFamily=Courier New;strokeWidth=2;fillColor=#77aac2;strokeColor=none;fontColor=#FFFFFF;shadow=1;glass=0;comic=0;gradientColor=none;fontStyle=1;fontSize=20;" vertex="1" parent="1">
          <mxGeometry x="255" y="1030" width="50" height="30" as="geometry" />
        </mxCell>
        <mxCell id="Y9d2AtKNgh2TE14PhXuT-49" value="" style="rounded=1;whiteSpace=wrap;html=1;fontFamily=Courier New;strokeWidth=2;fillColor=#77aac2;strokeColor=none;fontColor=#FFFFFF;shadow=1;glass=0;comic=0;gradientColor=none;fontStyle=1;fontSize=20;" vertex="1" parent="1">
          <mxGeometry x="455" y="1030" width="50" height="30" as="geometry" />
        </mxCell>
        <mxCell id="Y9d2AtKNgh2TE14PhXuT-52" value="&lt;font style=&quot;font-size: 20px;&quot;&gt;Memory Access Map Table&lt;/font&gt;" style="text;html=1;align=center;verticalAlign=middle;resizable=0;points=[];autosize=1;strokeColor=none;fillColor=none;fontFamily=Times New Roman;strokeWidth=2;fontSize=20;" vertex="1" parent="1">
          <mxGeometry x="475" y="125" width="240" height="40" as="geometry" />
        </mxCell>
        <mxCell id="Y9d2AtKNgh2TE14PhXuT-58" style="edgeStyle=orthogonalEdgeStyle;rounded=0;orthogonalLoop=1;jettySize=auto;html=1;entryX=0.25;entryY=1;entryDx=0;entryDy=0;fontSize=20;strokeWidth=2;" edge="1" parent="1" source="Y9d2AtKNgh2TE14PhXuT-54" target="Y9d2AtKNgh2TE14PhXuT-56">
          <mxGeometry relative="1" as="geometry" />
        </mxCell>
        <mxCell id="Y9d2AtKNgh2TE14PhXuT-59" style="edgeStyle=orthogonalEdgeStyle;rounded=0;orthogonalLoop=1;jettySize=auto;html=1;entryX=0;entryY=0.5;entryDx=0;entryDy=0;fontSize=20;exitX=0.5;exitY=1;exitDx=0;exitDy=0;strokeWidth=2;" edge="1" parent="1" source="Y9d2AtKNgh2TE14PhXuT-54" target="Y9d2AtKNgh2TE14PhXuT-45">
          <mxGeometry relative="1" as="geometry">
            <Array as="points">
              <mxPoint x="595" y="1400" />
              <mxPoint x="105" y="1400" />
              <mxPoint x="105" y="1045" />
            </Array>
          </mxGeometry>
        </mxCell>
        <mxCell id="Y9d2AtKNgh2TE14PhXuT-65" style="edgeStyle=orthogonalEdgeStyle;rounded=0;orthogonalLoop=1;jettySize=auto;html=1;entryX=1;entryY=0.5;entryDx=0;entryDy=0;fontSize=20;exitX=0.5;exitY=1;exitDx=0;exitDy=0;strokeWidth=2;" edge="1" parent="1" source="Y9d2AtKNgh2TE14PhXuT-54" target="Y9d2AtKNgh2TE14PhXuT-60">
          <mxGeometry relative="1" as="geometry">
            <Array as="points">
              <mxPoint x="595" y="1400" />
              <mxPoint x="1075" y="1400" />
              <mxPoint x="1075" y="1045" />
            </Array>
          </mxGeometry>
        </mxCell>
        <mxCell id="Y9d2AtKNgh2TE14PhXuT-54" value="PriorityEncoder" style="shape=parallelogram;perimeter=parallelogramPerimeter;whiteSpace=wrap;html=1;fixedSize=1;fontSize=20;strokeWidth=2;" vertex="1" parent="1">
          <mxGeometry x="370" y="1300" width="450" height="60" as="geometry" />
        </mxCell>
        <mxCell id="Y9d2AtKNgh2TE14PhXuT-102" style="edgeStyle=orthogonalEdgeStyle;rounded=0;orthogonalLoop=1;jettySize=auto;html=1;fontSize=20;" edge="1" parent="1" source="Y9d2AtKNgh2TE14PhXuT-56">
          <mxGeometry relative="1" as="geometry">
            <mxPoint x="565" y="1650" as="targetPoint" />
          </mxGeometry>
        </mxCell>
        <mxCell id="Y9d2AtKNgh2TE14PhXuT-56" value="" style="shape=trapezoid;perimeter=trapezoidPerimeter;whiteSpace=wrap;html=1;fixedSize=1;rotation=-180;fontSize=20;strokeWidth=2;" vertex="1" parent="1">
          <mxGeometry x="505" y="1510" width="120" height="60" as="geometry" />
        </mxCell>
        <mxCell id="Y9d2AtKNgh2TE14PhXuT-94" style="edgeStyle=orthogonalEdgeStyle;rounded=0;orthogonalLoop=1;jettySize=auto;html=1;entryX=0.5;entryY=1;entryDx=0;entryDy=0;strokeWidth=2;fontSize=20;" edge="1" parent="1" source="Y9d2AtKNgh2TE14PhXuT-60" target="Y9d2AtKNgh2TE14PhXuT-92">
          <mxGeometry relative="1" as="geometry" />
        </mxCell>
        <mxCell id="Y9d2AtKNgh2TE14PhXuT-60" value="" style="whiteSpace=wrap;html=1;rounded=1;fontFamily=Courier New;strokeWidth=2;fillColor=#81b29a;strokeColor=none;fontColor=#FFFFFF;shadow=1;glass=0;comic=0;gradientColor=none;fontStyle=1;fontSize=20;" vertex="1" parent="1">
          <mxGeometry x="625" y="1010" width="430" height="70" as="geometry" />
        </mxCell>
        <mxCell id="Y9d2AtKNgh2TE14PhXuT-61" value="" style="rounded=1;whiteSpace=wrap;html=1;fontFamily=Courier New;strokeWidth=2;fillColor=#77aac2;strokeColor=none;fontColor=#FFFFFF;shadow=1;glass=0;comic=0;gradientColor=none;fontStyle=1;fontSize=20;" vertex="1" parent="1">
          <mxGeometry x="655" y="1030" width="50" height="30" as="geometry" />
        </mxCell>
        <mxCell id="Y9d2AtKNgh2TE14PhXuT-62" value="" style="rounded=1;whiteSpace=wrap;html=1;fontFamily=Courier New;strokeWidth=2;fillColor=#77aac2;strokeColor=none;fontColor=#FFFFFF;shadow=1;glass=0;comic=0;gradientColor=none;fontStyle=1;fontSize=20;" vertex="1" parent="1">
          <mxGeometry x="705" y="1030" width="50" height="30" as="geometry" />
        </mxCell>
        <mxCell id="Y9d2AtKNgh2TE14PhXuT-63" value="" style="rounded=1;whiteSpace=wrap;html=1;fontFamily=Courier New;strokeWidth=2;fillColor=#77aac2;strokeColor=none;fontColor=#FFFFFF;shadow=1;glass=0;comic=0;gradientColor=none;fontStyle=1;fontSize=20;" vertex="1" parent="1">
          <mxGeometry x="755" y="1030" width="50" height="30" as="geometry" />
        </mxCell>
        <mxCell id="Y9d2AtKNgh2TE14PhXuT-64" value="" style="rounded=1;whiteSpace=wrap;html=1;fontFamily=Courier New;strokeWidth=2;fillColor=#77aac2;strokeColor=none;fontColor=#FFFFFF;shadow=1;glass=0;comic=0;gradientColor=none;fontStyle=1;fontSize=20;" vertex="1" parent="1">
          <mxGeometry x="955" y="1030" width="50" height="30" as="geometry" />
        </mxCell>
        <mxCell id="Y9d2AtKNgh2TE14PhXuT-66" value="" style="rounded=1;whiteSpace=wrap;html=1;strokeWidth=2;fillColor=#f4f1de;strokeColor=none;fontFamily=Courier New;fontColor=#FFFFFF;shadow=0;glass=0;comic=0;gradientColor=none;fontSize=20;" vertex="1" parent="1">
          <mxGeometry x="-1620" y="190" width="570" height="410" as="geometry" />
        </mxCell>
        <mxCell id="Y9d2AtKNgh2TE14PhXuT-67" value="Valid" style="rounded=1;whiteSpace=wrap;html=1;strokeColor=none;shadow=1;glass=0;comic=0;gradientColor=none;fontFamily=Courier New;fontColor=#FFFFFF;fillColor=#81b29a;fontStyle=1;fontSize=20;strokeWidth=2;" vertex="1" parent="1">
          <mxGeometry x="-1640" y="840" width="40" height="30" as="geometry" />
        </mxCell>
        <mxCell id="Y9d2AtKNgh2TE14PhXuT-68" value="Data" style="rounded=1;whiteSpace=wrap;html=1;fillColor=#77aac2;strokeColor=none;shadow=1;glass=0;comic=0;gradientColor=none;fontFamily=Courier New;fontColor=#FFFFFF;fontStyle=1;fontSize=20;strokeWidth=2;" vertex="1" parent="1">
          <mxGeometry x="-1770" y="770" width="90" height="30" as="geometry" />
        </mxCell>
        <mxCell id="Y9d2AtKNgh2TE14PhXuT-69" value="Byte Offset" style="rounded=1;whiteSpace=wrap;html=1;fillColor=#696773;strokeColor=none;shadow=1;glass=0;comic=0;gradientColor=none;fontFamily=Courier New;fontColor=#FFFFFF;fontSize=20;strokeWidth=2;" vertex="1" parent="1">
          <mxGeometry x="-1650" y="745" width="90" height="30" as="geometry" />
        </mxCell>
        <mxCell id="Y9d2AtKNgh2TE14PhXuT-70" value="Tag" style="rounded=1;whiteSpace=wrap;html=1;strokeColor=none;shadow=1;glass=0;comic=0;gradientColor=none;fontFamily=Courier New;fontColor=#FFFFFF;fillColor=#e07a5f;fontStyle=1;fontSize=20;strokeWidth=2;" vertex="1" parent="1">
          <mxGeometry x="-1470" y="730" width="90" height="30" as="geometry" />
        </mxCell>
        <mxCell id="Y9d2AtKNgh2TE14PhXuT-74" style="edgeStyle=orthogonalEdgeStyle;rounded=1;orthogonalLoop=1;jettySize=auto;html=1;exitX=1;exitY=0.5;exitDx=0;exitDy=0;fontFamily=Helvetica;dashed=1;strokeColor=#696773;strokeWidth=2;fontSize=20;" edge="1" parent="1">
          <mxGeometry relative="1" as="geometry">
            <mxPoint x="-1505" y="925" as="targetPoint" />
            <mxPoint x="-1680" y="410" as="sourcePoint" />
          </mxGeometry>
        </mxCell>
        <mxCell id="Y9d2AtKNgh2TE14PhXuT-75" value="" style="whiteSpace=wrap;html=1;rounded=1;fontFamily=Courier New;strokeWidth=2;fillColor=#81b29a;strokeColor=none;fontColor=#FFFFFF;shadow=1;glass=0;comic=0;gradientColor=none;fontStyle=1;fontSize=20;" vertex="1" parent="1">
          <mxGeometry x="665" y="670" width="430" height="70" as="geometry" />
        </mxCell>
        <mxCell id="Y9d2AtKNgh2TE14PhXuT-76" value="" style="rounded=1;whiteSpace=wrap;html=1;fontFamily=Courier New;strokeWidth=2;fillColor=#77aac2;strokeColor=none;fontColor=#FFFFFF;shadow=1;glass=0;comic=0;gradientColor=none;fontStyle=1;fontSize=20;" vertex="1" parent="1">
          <mxGeometry x="695" y="690" width="50" height="30" as="geometry" />
        </mxCell>
        <mxCell id="Y9d2AtKNgh2TE14PhXuT-77" value="" style="rounded=1;whiteSpace=wrap;html=1;fontFamily=Courier New;strokeWidth=2;fillColor=#77aac2;strokeColor=none;fontColor=#FFFFFF;shadow=1;glass=0;comic=0;gradientColor=none;fontStyle=1;fontSize=20;" vertex="1" parent="1">
          <mxGeometry x="745" y="690" width="50" height="30" as="geometry" />
        </mxCell>
        <mxCell id="Y9d2AtKNgh2TE14PhXuT-78" value="" style="rounded=1;whiteSpace=wrap;html=1;fontFamily=Courier New;strokeWidth=2;fillColor=#77aac2;strokeColor=none;fontColor=#FFFFFF;shadow=1;glass=0;comic=0;gradientColor=none;fontStyle=1;fontSize=20;" vertex="1" parent="1">
          <mxGeometry x="795" y="690" width="50" height="30" as="geometry" />
        </mxCell>
        <mxCell id="Y9d2AtKNgh2TE14PhXuT-79" value="" style="rounded=1;whiteSpace=wrap;html=1;fontFamily=Courier New;strokeWidth=2;fillColor=#77aac2;strokeColor=none;fontColor=#FFFFFF;shadow=1;glass=0;comic=0;gradientColor=none;fontStyle=1;fontSize=20;" vertex="1" parent="1">
          <mxGeometry x="995" y="690" width="50" height="30" as="geometry" />
        </mxCell>
        <mxCell id="Y9d2AtKNgh2TE14PhXuT-80" value="" style="rounded=1;whiteSpace=wrap;html=1;fontFamily=Courier New;strokeWidth=2;fillColor=#77aac2;strokeColor=none;fontColor=#FFFFFF;shadow=1;glass=0;comic=0;gradientColor=none;fontStyle=1;fontSize=20;" vertex="1" parent="1">
          <mxGeometry x="845" y="690" width="50" height="30" as="geometry" />
        </mxCell>
        <mxCell id="Y9d2AtKNgh2TE14PhXuT-101" style="edgeStyle=orthogonalEdgeStyle;rounded=0;orthogonalLoop=1;jettySize=auto;html=1;entryX=0.75;entryY=1;entryDx=0;entryDy=0;strokeWidth=2;fontSize=20;" edge="1" parent="1" source="Y9d2AtKNgh2TE14PhXuT-82" target="Y9d2AtKNgh2TE14PhXuT-56">
          <mxGeometry relative="1" as="geometry">
            <Array as="points">
              <mxPoint x="-55" y="1460" />
              <mxPoint x="535" y="1460" />
            </Array>
          </mxGeometry>
        </mxCell>
        <mxCell id="Y9d2AtKNgh2TE14PhXuT-82" value="Addr" style="rounded=1;whiteSpace=wrap;html=1;fontFamily=Courier New;strokeWidth=2;fillColor=#e07a5f;strokeColor=none;fontColor=#FFFFFF;shadow=1;glass=0;comic=0;gradientColor=none;fontStyle=1;fontSize=20;" vertex="1" parent="1">
          <mxGeometry x="-110" y="1025" width="110" height="40" as="geometry" />
        </mxCell>
        <mxCell id="Y9d2AtKNgh2TE14PhXuT-86" style="edgeStyle=orthogonalEdgeStyle;rounded=0;orthogonalLoop=1;jettySize=auto;html=1;entryX=0.534;entryY=-0.039;entryDx=0;entryDy=0;entryPerimeter=0;strokeWidth=2;fontSize=20;" edge="1" parent="1" source="Y9d2AtKNgh2TE14PhXuT-84" target="Y9d2AtKNgh2TE14PhXuT-18">
          <mxGeometry relative="1" as="geometry" />
        </mxCell>
        <mxCell id="Y9d2AtKNgh2TE14PhXuT-84" value="Left Shifter" style="shape=parallelogram;perimeter=parallelogramPerimeter;whiteSpace=wrap;html=1;fixedSize=1;fontSize=20;strokeWidth=2;" vertex="1" parent="1">
          <mxGeometry x="135" y="520" width="450" height="60" as="geometry" />
        </mxCell>
        <mxCell id="Y9d2AtKNgh2TE14PhXuT-89" style="edgeStyle=orthogonalEdgeStyle;rounded=0;orthogonalLoop=1;jettySize=auto;html=1;entryX=0.5;entryY=0;entryDx=0;entryDy=0;strokeWidth=2;fontSize=20;" edge="1" parent="1" source="Y9d2AtKNgh2TE14PhXuT-87" target="Y9d2AtKNgh2TE14PhXuT-75">
          <mxGeometry relative="1" as="geometry" />
        </mxCell>
        <mxCell id="Y9d2AtKNgh2TE14PhXuT-87" value="Left Shifter" style="shape=parallelogram;perimeter=parallelogramPerimeter;whiteSpace=wrap;html=1;fixedSize=1;fontSize=20;strokeWidth=2;" vertex="1" parent="1">
          <mxGeometry x="655" y="520" width="450" height="60" as="geometry" />
        </mxCell>
        <mxCell id="Y9d2AtKNgh2TE14PhXuT-95" style="edgeStyle=orthogonalEdgeStyle;rounded=0;orthogonalLoop=1;jettySize=auto;html=1;strokeWidth=2;fontSize=20;" edge="1" parent="1" source="Y9d2AtKNgh2TE14PhXuT-92" target="Y9d2AtKNgh2TE14PhXuT-54">
          <mxGeometry relative="1" as="geometry" />
        </mxCell>
        <mxCell id="Y9d2AtKNgh2TE14PhXuT-92" value="" style="shape=trapezoid;perimeter=trapezoidPerimeter;whiteSpace=wrap;html=1;fixedSize=1;rotation=-180;fontSize=20;strokeWidth=2;" vertex="1" parent="1">
          <mxGeometry x="535" y="1200" width="120" height="60" as="geometry" />
        </mxCell>
        <mxCell id="Y9d2AtKNgh2TE14PhXuT-100" style="edgeStyle=orthogonalEdgeStyle;rounded=0;orthogonalLoop=1;jettySize=auto;html=1;strokeWidth=2;fontSize=20;" edge="1" parent="1" source="Y9d2AtKNgh2TE14PhXuT-97" target="Y9d2AtKNgh2TE14PhXuT-82">
          <mxGeometry relative="1" as="geometry" />
        </mxCell>
        <mxCell id="Y9d2AtKNgh2TE14PhXuT-97" value="Addr" style="rounded=1;whiteSpace=wrap;html=1;fontFamily=Courier New;strokeWidth=2;fillColor=#e07a5f;strokeColor=none;fontColor=#FFFFFF;shadow=1;glass=0;comic=0;gradientColor=none;fontStyle=1;fontSize=20;" vertex="1" parent="1">
          <mxGeometry x="-110" y="330" width="110" height="40" as="geometry" />
        </mxCell>
        <mxCell id="Y9d2AtKNgh2TE14PhXuT-103" value="prefetch line addr" style="text;html=1;align=center;verticalAlign=middle;resizable=0;points=[];autosize=1;strokeColor=none;fillColor=none;fontSize=20;" vertex="1" parent="1">
          <mxGeometry x="475" y="1663" width="180" height="40" as="geometry" />
        </mxCell>
        <mxCell id="Y9d2AtKNgh2TE14PhXuT-104" value="" style="edgeStyle=orthogonalEdgeStyle;rounded=0;orthogonalLoop=1;jettySize=auto;html=1;exitX=0;exitY=0.5;exitDx=0;exitDy=0;exitPerimeter=0;startArrow=classic;startFill=1;endArrow=none;endFill=0;fontFamily=Times New Roman;strokeWidth=2;fontSize=20;" edge="1" parent="1" target="Y9d2AtKNgh2TE14PhXuT-38">
          <mxGeometry relative="1" as="geometry">
            <mxPoint x="430.0005882352941" y="760" as="targetPoint" />
            <mxPoint x="430.53" y="860" as="sourcePoint" />
          </mxGeometry>
        </mxCell>
        <mxCell id="Y9d2AtKNgh2TE14PhXuT-38" value="" style="shape=or;whiteSpace=wrap;html=1;rotation=90;fontFamily=Times New Roman;strokeWidth=2;fontSize=20;" vertex="1" parent="1">
          <mxGeometry x="390" y="810" width="60" height="80" as="geometry" />
        </mxCell>
        <mxCell id="Y9d2AtKNgh2TE14PhXuT-90" style="edgeStyle=orthogonalEdgeStyle;rounded=0;orthogonalLoop=1;jettySize=auto;html=1;entryX=0.5;entryY=0;entryDx=0;entryDy=0;strokeWidth=2;fontSize=20;" edge="1" parent="1" target="Y9d2AtKNgh2TE14PhXuT-46">
          <mxGeometry relative="1" as="geometry">
            <mxPoint x="285" y="880" as="sourcePoint" />
            <Array as="points">
              <mxPoint x="285" y="910" />
              <mxPoint x="180" y="910" />
            </Array>
          </mxGeometry>
        </mxCell>
        <mxCell id="Y9d2AtKNgh2TE14PhXuT-91" style="edgeStyle=orthogonalEdgeStyle;rounded=0;orthogonalLoop=1;jettySize=auto;html=1;entryX=0.5;entryY=0;entryDx=0;entryDy=0;strokeWidth=2;fontSize=20;" edge="1" parent="1" target="Y9d2AtKNgh2TE14PhXuT-47">
          <mxGeometry relative="1" as="geometry">
            <mxPoint x="410" y="880" as="sourcePoint" />
            <Array as="points">
              <mxPoint x="410" y="950" />
              <mxPoint x="230" y="950" />
            </Array>
          </mxGeometry>
        </mxCell>
        <mxCell id="Y9d2AtKNgh2TE14PhXuT-107" value="cycle 0" style="text;html=1;align=center;verticalAlign=middle;resizable=0;points=[];autosize=1;strokeColor=none;fillColor=none;fontSize=20;" vertex="1" parent="1">
          <mxGeometry x="-450" y="90" width="90" height="40" as="geometry" />
        </mxCell>
        <mxCell id="Y9d2AtKNgh2TE14PhXuT-108" value="cycle 1" style="text;html=1;align=center;verticalAlign=middle;resizable=0;points=[];autosize=1;strokeColor=none;fillColor=none;fontSize=20;" vertex="1" parent="1">
          <mxGeometry x="-460" y="705" width="90" height="40" as="geometry" />
        </mxCell>
        <mxCell id="Y9d2AtKNgh2TE14PhXuT-109" value="cycle 2" style="text;html=1;align=center;verticalAlign=middle;resizable=0;points=[];autosize=1;strokeColor=none;fillColor=none;fontSize=20;" vertex="1" parent="1">
          <mxGeometry x="-450" y="1250" width="90" height="40" as="geometry" />
        </mxCell>
        <mxCell id="Y9d2AtKNgh2TE14PhXuT-110" value="forwardMap" style="text;html=1;align=center;verticalAlign=middle;resizable=0;points=[];autosize=1;strokeColor=none;fillColor=none;" vertex="1" parent="1">
          <mxGeometry x="1100" y="640" width="90" height="30" as="geometry" />
        </mxCell>
        <mxCell id="Y9d2AtKNgh2TE14PhXuT-111" value="backwardMap" style="text;html=1;align=center;verticalAlign=middle;resizable=0;points=[];autosize=1;strokeColor=none;fillColor=none;" vertex="1" parent="1">
          <mxGeometry x="30" y="628" width="100" height="30" as="geometry" />
        </mxCell>
      </root>
    </mxGraphModel>
  </diagram>
</mxfile>
